<?xml version="1.0" encoding="utf-8"?>
<!-- Generator: Adobe Illustrator 24.0.2, SVG Export Plug-In . SVG Version: 6.00 Build 0)  -->
<svg version="1.1" id="Capa_1" xmlns="http://www.w3.org/2000/svg" xmlns:xlink="http://www.w3.org/1999/xlink" x="0px" y="0px"
	 viewBox="0 0 300 300" style="enable-background:new 0 0 300 300;" xml:space="preserve">
<style type="text/css">
	.st0{fill:#FFFFFF;}
</style>
<g id="BoecUv_1_">
	<g>
		<path class="st0" d="M158.9,184.5c0.4,0,0.7,0,1.1,0h0.2l4.8,0c5.1,0,10.2,0,15.3,0c3.1,0,3.8-0.7,3.8-3.9c0-16.4,0-32.9,0-49.3
			c0-3.9-0.5-4.4-4.3-4.4l-63.9,0l-0.3,0c-0.5,0-1,0-1.5,0c-1.5,0.2-2.4,1.1-2.4,2.6c-0.1,2.5-0.1,5,0,7.5c0,1.5,1.2,2.7,2.6,2.7
			c0,0,0,0,0,0c1.4,0,2.5-1.1,2.6-2.7c0-0.8,0-1.6,0-2.5c0-0.4,0-0.8,0-1.2v-1h61.7v46.8l-8.1,0c-3.9,0-7.7,0-11.6,0
			c-1.5,0-2.7,1.1-2.7,2.6C156.3,183.2,157.4,184.3,158.9,184.5z"/>
		<path class="st0" d="M141.4,181.3c0.1,1.3,0.4,2.2,1.1,2.7c0.5,0.4,1.2,0.6,2.1,0.5c1.2-0.2,2.2-0.6,2.1-4.2
			c-0.5-16.7-15.1-30.9-31.8-31c0,0,0,0,0,0c-1.5,0-3.2,0.4-3.3,2.6c0,1.2,0.3,2.6,3.1,2.8c5.8,0.3,10.6,1.9,14.7,4.7
			C137,164.6,141,172,141.4,181.3z"/>
		<path class="st0" d="M126.5,181.6c0.1,1.4,0.7,3,2.9,2.9c1.6-0.1,2.6-1.3,2.6-3.2v0c-0.1-9.1-8.2-17.1-17.2-17.1c0,0-0.1,0-0.1,0
			c-1.8,0-2.9,1-3,2.6c-0.1,1.6,1,2.7,2.7,2.9C121.7,170.3,125.7,174.3,126.5,181.6z"/>
		<path class="st0" d="M114.3,184.5C114.3,184.5,114.3,184.5,114.3,184.5c1.6,0,2.6-1,2.7-2.6c0-1.6-1-2.7-2.6-2.7c0,0-0.1,0-0.1,0
			c-0.7,0-1.4,0.3-1.9,0.7c-0.5,0.5-0.8,1.2-0.8,2C111.6,183.4,112.7,184.5,114.3,184.5z"/>
	</g>
</g>
</svg>
