<?xml version="1.0" encoding="utf-8"?>
<!-- Generator: Adobe Illustrator 24.0.2, SVG Export Plug-In . SVG Version: 6.00 Build 0)  -->
<svg version="1.1" id="Capa_1" xmlns="http://www.w3.org/2000/svg" xmlns:xlink="http://www.w3.org/1999/xlink" x="0px" y="0px"
	 viewBox="0 0 1000 1000" style="enable-background:new 0 0 1000 1000;" xml:space="preserve">
<style type="text/css">
	.st0{fill:#FFFFFF;}
</style>
<g id="BzsR4o_1_">
	<g>
		<path class="st0" d="M510.7,115.7c8.5,4.7,11.8,12.3,14.1,21.5c11.3,45.4,16.5,91.6,12.5,138c-7.5,87.5-41.4,163.3-107.5,222.8
			c-11.6,10.4-25.6,18.1-38.7,26.6c-3.2,2.1-5.2,3.6-5.1,7.9C386,606,386,679.5,386,752.9c0,0.7,0.2,1.5,0.4,2.8
			c10.1,1.6,20.4,3.1,30.6,4.9c17.1,3,33.2,8.6,48,18c26.3,16.7,27.6,47.1,2.4,65.5c-17.2,12.6-37.3,17.8-57.7,21.1
			c-33.1,5.4-66.2,4.7-98.9-2.9c-15.6-3.6-30.7-8.7-43.8-18.4c-24.6-18.4-23.3-48.7,2.6-65.2c20.1-12.8,42.5-18,65.6-21
			c4.4-0.6,8.8-1.1,13.4-1.6c0.1-2.5,0.3-4.5,0.3-6.4c0-72,0.1-143.9-0.2-215.9c0-2.8-1.8-7.1-4-8.2c-35.4-18.2-62.3-45.6-85-77.5
			c-32.8-45.9-52.6-97.2-60.3-152.9c-5.7-40.8-3.4-81.7,3.5-122.3c2.1-12.3,5.2-24.3,7.4-36.6c1.6-9.2,5.5-16.4,14.1-20.6
			C319.7,115.7,415.2,115.7,510.7,115.7z M490.7,153.1c-82.6,0-164.7,0-247.7,0c-2.5,17.1-5.3,33.9-7.3,50.6
			c-7.2,58.1-0.6,114.5,23.1,168.4c18.9,42.9,44.5,81.3,83.4,108.4c27.9,19.5,22.7,20.4,50.1-0.4c67.2-51.1,99-122.1,107.7-204.4
			C504.4,234.8,499.4,194.2,490.7,153.1z M386.6,793.2c-3.9,14.9-9.3,21.2-18.7,21.1c-13.1-0.2-18.4-9-19.6-20.6
			c-22.1,0.1-51.8,9.3-60.9,18.6c27.1,26,134.8,25.3,160.4-0.7C429.3,798.8,408.3,795.9,386.6,793.2z"/>
		<path class="st0" d="M768.8,224.2c-21.9-5.5-42.1-10.6-62.4-15.6c-50.3-12.6-100.5-25.1-150.7-37.8c-2.4-0.6-5.7-2.8-6.2-4.9
			c-2.9-11.3-5-22.8-7.6-35.5c5.7,1.3,10.6,2.3,15.5,3.5c76.1,19,152.2,38.1,228.3,57.1c13.9,3.5,18.7,9.7,18.6,23.8
			c-0.6,52.5-7.3,104.1-27,153.1c-29.9,74.5-78.4,133.5-150.7,170.8c-13.4,6.9-28.2,11-42.6,15.8c-3.9,1.3-5.6,2.8-6.6,6.7
			c-17.6,70.5-35.3,141.1-53,211.5c12.7,5.6,25.4,10.7,37.5,16.8c13.6,6.9,26.3,15.6,35.5,28.1c17.5,23.8,9.3,49.8-18.7,59.8
			c-18.3,6.6-37.4,7.8-56.2,5.5c-19.7-2.4-39.1-7.5-58.5-11.5c-1.4-0.3-2.6-1.1-2.2-1c10-8.5,20.1-17.6,30.8-25.9
			c2.3-1.8,7-1.2,10.4-0.6c17.3,2.8,34.6,5.3,52.1,2.2c4.8-0.8,9.4-2.4,15.7-4.1c-15.7-17.9-35.1-25.7-53.6-32.6
			c-4.6,5.5-8.7,10.3-12.8,15.1c-0.8-0.4-1.5-0.8-2.3-1.1c4.7-25.5-6.1-44.2-27.1-59.7c3.4,0,5.3-0.1,7.1,0c2,0.1,4,0.4,6.8,0.7
			c3.7-14.3,7.4-28.7,11-43c14-55.5,27.8-111.1,41.9-166.6c1.4-5.4,0.8-8.7-3.8-12.7c-23-20.4-39.2-45.7-52.4-73.2
			c-0.7-1.4-0.8-3.7-0.1-4.8c7.4-11.2,14.9-22.2,21.4-31.8c10.9,19.3,21.3,39.5,33.6,58.4c6.5,10.1,16.1,18.3,24.7,26.9
			c1.8,1.8,5.9,2.5,8.5,1.9c39.4-8.7,71-30.9,99.3-58.5c51-49.7,79.9-110.7,89.5-180.9C765.3,261.9,766.8,243.5,768.8,224.2z"/>
	</g>
</g>
</svg>
