<?xml version="1.0" encoding="utf-8"?>
<!-- Generator: Adobe Illustrator 24.0.2, SVG Export Plug-In . SVG Version: 6.00 Build 0)  -->
<svg version="1.1" id="Capa_1" xmlns="http://www.w3.org/2000/svg" xmlns:xlink="http://www.w3.org/1999/xlink" x="0px" y="0px"
	 viewBox="0 0 300 300" style="enable-background:new 0 0 300 300;" xml:space="preserve">
<style type="text/css">
	.st0{fill:#FFFFFF;}
</style>
<g>
	<path class="st0" d="M121.4,182.8l1.3-0.3c3.3-0.9,6.7-1.8,10-2.7c0.6-0.2,1.1-0.3,1.7-0.3c0.9,0,1.7,0.2,2.6,0.7
		c5,2.8,10.5,4.2,17.4,4.3c0.4,0,0.8-0.1,1.3-0.1c1.1-0.1,2.4-0.2,3.6-0.4c18.7-2.9,32-20,30.3-38.8c-0.9-10.2-6.3-19.5-14.8-25.6
		c-8.4-6.1-18.8-8.2-28.6-5.9c-11.1,2.6-20.2,9.9-24.8,20.2c-4.7,10.2-4.3,21.9,1.1,32c0.5,1,0.7,2.5,0.4,3.7
		c-0.6,2.6-1.3,5.1-2,7.6c-0.4,1.3-0.7,2.6-1.1,3.9c-0.3,1.2-0.2,1.7-0.1,1.8C119.7,183,120.2,183.1,121.4,182.8z M132.4,127
		c5.8-5.7,13.5-8.9,21.6-8.9c16.8,0,30.4,13.8,30.3,30.6c0,8.1-3.2,15.7-9,21.5c-5.8,5.7-13.4,8.9-21.5,8.9c0,0,0,0-0.1,0
		c-16.8,0-30.4-13.8-30.4-30.6C123.4,140.4,126.6,132.8,132.4,127z"/>
	<path class="st0" d="M150.2,143.4c1.4,0.9,1.6,2.3,0.9,5c-0.1,0.3-0.2,0.6-0.3,0.9l-0.1,0.5c-0.4,1.5-0.9,3.1-1.3,4.6
		c-1,3.5-2.1,7.2-3,10.7c-0.4,1.6-0.2,2.9,0.7,3.7c0.9,0.8,2.3,1,3.9,0.6c1.6-0.5,2.8-1.3,3.9-2.3c0,0-0.1,0-0.1,0
		c-0.2,0.1-0.3,0.1-0.5,0.2c-0.3,0.1-0.6,0.1-0.9,0c-0.3-0.1-0.5-0.4-0.5-0.7c0-0.2-0.1-0.4-0.2-0.6c-0.2-0.6-0.4-1.2-0.3-1.9
		c0.5-2.2,1.2-4.4,1.8-6.5l0.4-1.5c1-3.5,2-7.1,3.1-10.7l1-3.5c-0.5,0.1-0.9,0.1-1.4,0.2C154.8,142.5,152.5,142.8,150.2,143.4z"/>
	<path class="st0" d="M158.1,127.6c-1.9,0-3.4,1.5-3.5,3.5c0,1,0.3,2,0.9,2.6c0.6,0.6,1.5,1,2.5,1l0,0c1,0,1.9-0.3,2.6-1
		c0.7-0.6,1-1.5,1-2.5c0-0.9-0.4-1.8-1.1-2.5C159.9,128,159.1,127.6,158.1,127.6C158.1,127.6,158.1,127.6,158.1,127.6z"/>
</g>
</svg>
