<?xml version="1.0" encoding="utf-8"?>
<!-- Generator: Adobe Illustrator 24.0.2, SVG Export Plug-In . SVG Version: 6.00 Build 0)  -->
<svg version="1.1" id="Capa_1" xmlns="http://www.w3.org/2000/svg" xmlns:xlink="http://www.w3.org/1999/xlink" x="0px" y="0px"
	 viewBox="0 0 300 300" style="enable-background:new 0 0 300 300;" xml:space="preserve">
<style type="text/css">
	.st0{fill:#FFFFFF;}
</style>
<g id="YTFkf6_1_">
	<g>
		<path class="st0" d="M117.4,174.9c0.5-16.9,13.2-31.1,29.5-33.6c0.7-1.3,1.2-2.5,2-3.4c1.3-1.4,3-1.8,4.9-1.3
			c1.9,0.5,3.2,1.8,3.6,3.8c0.2,0.8,0.6,1,1.3,1.2c15.1,3,25.7,13.9,28.3,29.1c0.2,1.4,0.3,2.8,0.5,4.4c1,0,2,0,3.1,0
			c0.9,0,1.3,0.3,1.3,1.2c0.3,5.3-3.5,9.3-8.8,9.3c-20.1,0-40.2,0-60.3,0c-5.2,0-9.5-3.9-9.7-8.8c-0.1-1.5,0.1-1.7,1.6-1.7
			c0.8,0,1.7,0,2.5,0C117.1,175,117.2,175,117.4,174.9z M119.3,174.9c22.1,0,44.2,0,66.2,0c0-15.8-13.3-32-32.8-32.2
			C133.3,142.5,119.4,158.5,119.3,174.9z M114.9,176.9c0.2,3.7,3.6,6.9,7.6,6.9c20.3,0,40.6,0,61,0c2.8,0,5.2-1.7,6.2-4.2
			c0.3-0.8,0.4-1.7,0.6-2.6C164.9,176.9,139.9,176.9,114.9,176.9z M155.6,141c-0.4-1.8-1.7-2.9-3.3-2.9c-1.6,0.1-2.9,1.2-3.1,2.9
			C151.3,141,153.5,141,155.6,141z"/>
		<path class="st0" d="M172.5,133.3c0,2,0,4,0,6c0,0.4-0.5,1.2-0.8,1.2c-0.9,0.2-0.9-0.6-0.9-1.2c0-4,0-8,0-12
			c0-0.4,0.6-0.8,0.9-1.2c0.3,0.4,0.8,0.8,0.8,1.2C172.5,129.3,172.5,131.3,172.5,133.3C172.5,133.3,172.5,133.3,172.5,133.3z"/>
		<path class="st0" d="M177,135.7c0-1.2-0.1-2.4,0-3.6c0-0.4,0.5-0.8,0.8-1.2c0.3,0.4,0.9,0.8,0.9,1.2c0.1,2.4,0.1,4.9,0,7.3
			c0,0.4-0.5,1-0.8,1.1c-0.8,0.2-0.9-0.5-0.9-1.1C176.9,138.2,177,136.9,177,135.7C177,135.7,177,135.7,177,135.7z"/>
		<path class="st0" d="M164.5,136.5c0-1-0.1-1.9,0-2.9c0.1-0.5,0.5-1.1,0.8-1.2c0.8-0.2,0.9,0.5,0.9,1.1c0,1.9,0,3.9,0,5.8
			c0,0.6-0.1,1.3-0.9,1.2c-0.4-0.1-0.8-0.8-0.8-1.2C164.4,138.4,164.5,137.4,164.5,136.5z"/>
		<path class="st0" d="M123.5,168.1c0.6-1.6,1.1-3,1.7-4.4c2.6-5.8,6.7-10.2,12.1-13.5c0.2-0.1,0.5-0.4,0.8-0.4c0.4,0,1,0.1,1,0.3
			c0.1,0.3,0,0.9-0.3,1.1c-0.7,0.6-1.5,1-2.3,1.5c-5.2,3.7-8.9,8.5-10.8,14.6c-0.1,0.4-0.1,0.8-0.4,1c-0.3,0.3-0.7,0.5-1.1,0.5
			C123.9,168.9,123.7,168.4,123.5,168.1z"/>
		<path class="st0" d="M141.8,150.2c-0.4-0.5-0.8-0.8-0.9-1.1c-0.2-0.6,1.2-1.6,2.2-1.4c0.3,0,0.6,0.6,1,0.9
			C143.4,149,142.7,149.5,141.8,150.2z"/>
	</g>
</g>
</svg>
