<?xml version="1.0" encoding="utf-8"?>
<!-- Generator: Adobe Illustrator 24.0.2, SVG Export Plug-In . SVG Version: 6.00 Build 0)  -->
<svg version="1.1" id="Capa_1" xmlns="http://www.w3.org/2000/svg" xmlns:xlink="http://www.w3.org/1999/xlink" x="0px" y="0px"
	 viewBox="0 0 300 300" style="enable-background:new 0 0 300 300;" xml:space="preserve">
<style type="text/css">
	.st0{fill:#FFFFFF;}
</style>
<g id="lJBbQ6_1_">
	<g>
		<path class="st0" d="M123.7,141c0-10.4,0-20.8,0-31.1c0-6.8,4.5-12.2,11.2-13.4c0.4-0.1,0.7-0.1,1.1-0.1c5.4,0,10.8-0.1,16.2,0
			c5.8,0.1,11.3,4.9,12.2,10.6c0.2,1.1,0.3,2.2,0.3,3.3c0,20.6,0,41.3,0,61.9c0,6.6-4.4,11.9-10.8,13.1c-0.7,0.1-1.5,0.2-2.2,0.2
			c-5,0-9.9,0-14.9,0c-5.5,0-10.3-3.3-12.2-8.5c-0.5-1.4-0.8-2.9-0.8-4.4C123.7,162,123.7,151.5,123.7,141
			C123.7,141,123.7,141,123.7,141z M162.6,140.8C162.6,140.8,162.6,140.8,162.6,140.8c0-1.9,0-3.9,0-5.8c0-8.3,0-16.5,0-24.8
			c0-1,0-2-0.2-2.9c-1-5.2-5.6-8.9-11-9c-4.6,0-9.3,0-13.9,0c-7.1,0-11.8,4.9-11.8,11.9c0,9.2,0,18.4,0,27.6c0,11.4,0,22.8,0,34.2
			c0,6.7,4.9,11.4,10.8,11.6c5.2,0.2,10.3,0.1,15.5,0c5.7-0.1,10.6-5,10.6-10.7C162.6,162.2,162.6,151.5,162.6,140.8z"/>
		<path class="st0" d="M147,172.2c0,0.4,0,0.8,0,1.2c-0.1,1.7-1.3,2.9-2.9,2.9c-1.6,0-2.9-1.2-2.8-2.9c0-0.9-0.3-1.3-1.2-1.6
			c-3.1-1.2-5.2-3.4-6.4-6.5c-0.3-0.7-0.6-1.1-1.5-1.1c-1.8,0-3-1.2-3-2.8c0-1.6,1.2-2.8,3-2.8c0.9,0,1.2-0.3,1.5-1
			c1.2-3.1,3.3-5.3,6.4-6.5c0.8-0.3,1.2-0.6,1.1-1.5c0-1.7,1.2-2.9,2.8-3c1.5,0,2.9,1.2,2.9,2.9c0,1,0.4,1.4,1.2,1.7
			c3.1,1.2,5.3,3.4,6.4,6.6c0.2,0.6,0.6,0.9,1.2,0.9c2,0.1,3.2,1.1,3.2,2.8c0,1.7-1.2,2.7-3.2,2.9c-0.4,0-1,0.5-1.2,0.9
			C153.3,168.7,150.7,170.9,147,172.2z M151.1,160.5c-1.4,0-2.8,0-4.1,0c-1.8,0-2-0.2-2-2c0-2.9,0-5.8,0-8.8c0-0.4-0.4-1.1-0.7-1.1
			c-0.8-0.2-0.8,0.5-0.8,1.1c0,2.6-0.1,5.2,0,7.8c0.1,3,0,3.1-3.1,3.1c-0.1,0-0.2,0-0.4,0c-2.5,0-5,0-7.6,0c-0.3,0-0.8,0.4-1,0.7
			c-0.1,0.2,0.2,0.7,0.4,0.9c0.3,0.2,0.8,0.2,1.2,0.2c2.9,0,5.9,0,8.8,0c1.2,0,1.6,0.4,1.6,1.6c0,3,0,6,0,9c0,0.6,0,1.4,0.9,1.3
			c0.3,0,0.7-0.8,0.7-1.3c0.1-2.9,0-5.9,0-8.8c0-1.6,0.2-1.8,1.8-1.8c3,0,6,0,9,0c0.6,0,1.3-0.1,1.1-0.9c-0.1-0.3-0.8-0.8-1.2-0.8
			C154.2,160.5,152.7,160.5,151.1,160.5z M141.3,158.6c0-1.8,0-3.8,0-5.7c-2.6,0.4-5.5,3.4-5.6,5.7
			C137.5,158.6,139.4,158.6,141.3,158.6z M152.9,158.6c-1.2-3.1-3-4.9-6-6c0,1.8,0,3.5,0,5.2c0,0.3,0.4,0.8,0.7,0.8
			C149.3,158.6,151,158.6,152.9,158.6z M141.2,170c0-2,0-3.9,0-5.8c-1.9,0-3.8,0-5.7,0C136.5,167.1,138.3,168.9,141.2,170z
			 M147.1,169.9c2.5-0.5,5.1-3.2,5.6-5.6c-1.8,0-3.7,0-5.6,0c0,1.6,0,3.1,0,4.6C147,169.2,147.1,169.5,147.1,169.9z"/>
		<path class="st0" d="M144.1,110.2c-1.1,0-2.1,0-3.2,0c-1.9-0.1-3.3-1.5-3.3-3.2c0-1.7,1.5-3.2,3.4-3.2c2,0,4,0,6,0
			c2.1,0,3.6,1.4,3.7,3.1c0,1.8-1.6,3.3-3.6,3.3C146.1,110.2,145.1,110.2,144.1,110.2C144.1,110.2,144.1,110.2,144.1,110.2z
			 M144.2,108.1C144.2,108.1,144.2,108.1,144.2,108.1c1,0,2,0,3,0c0.8,0,1.4-0.3,1.4-1.1c0-0.9-0.5-1.2-1.4-1.2c-2.1,0-4.1,0-6.2,0
			c-0.8,0-1.4,0.3-1.3,1.2c0,0.8,0.5,1.1,1.3,1.1C142.1,108.1,143.1,108.1,144.2,108.1z"/>
		<path class="st0" d="M134.4,115.9c2.2,0,3.9,1.7,3.9,4c0,2-1.9,3.8-4,3.8c-2.1,0-3.8-1.8-3.8-4
			C130.5,117.5,132.2,115.8,134.4,115.9z M134.4,117.8c-1,0-2,0.9-2,1.9c0,1,0.8,1.9,1.8,1.9c1.1,0.1,2-0.7,2-1.8
			C136.3,118.7,135.5,117.8,134.4,117.8z"/>
		<path class="st0" d="M140.3,119.7c0-2.2,1.7-3.8,3.9-3.8c2.2,0,3.9,1.7,3.9,3.8c0,2.2-1.8,4-4,3.9
			C142,123.6,140.3,121.8,140.3,119.7z M144.3,117.8c-1-0.1-2,0.8-2,1.8c-0.1,1,0.7,1.9,1.8,2c1.1,0.1,2-0.7,2.1-1.7
			C146.2,118.8,145.3,117.9,144.3,117.8z"/>
		<path class="st0" d="M130.5,128.5c0-2.2,1.7-3.8,3.9-3.8c2.2,0,3.9,1.7,3.9,3.8c0,2.1-1.8,4-3.8,4
			C132.2,132.4,130.5,130.7,130.5,128.5z M134.3,126.6c-1,0-1.9,0.9-1.9,2c0,1,0.9,1.9,2,1.8c1.1,0,1.8-0.8,1.8-1.9
			C136.3,127.4,135.4,126.6,134.3,126.6z"/>
		<path class="st0" d="M140.3,128.5c0-2.2,1.7-3.8,3.9-3.8c2.2,0,3.9,1.7,3.9,3.8c0,2.1-1.8,3.9-3.9,3.9
			C142,132.5,140.3,130.7,140.3,128.5z M144.1,130.4c1.1,0,2-0.8,2-1.9c0-1-0.9-1.9-2-1.9c-1,0-1.9,0.9-1.9,2
			C142.2,129.6,143.1,130.4,144.1,130.4z"/>
		<path class="st0" d="M140.3,137.2c0.1-2.2,1.8-3.8,4.1-3.7c2.2,0.1,3.8,1.8,3.7,4c-0.1,2.1-1.9,3.8-4,3.7
			C141.9,141.2,140.2,139.3,140.3,137.2z M146.1,137.3c0-1-0.9-1.9-1.9-1.9c-1,0-2,1-1.9,2c0,1,0.9,1.8,1.9,1.8
			C145.2,139.2,146.1,138.4,146.1,137.3z"/>
		<path class="st0" d="M154,115.9c2.2,0,3.9,1.6,3.9,3.8c0,2.2-1.8,4-4,3.9c-2.1,0-3.8-1.9-3.8-4C150.1,117.5,151.8,115.9,154,115.9
			z M155.9,119.8c0.1-1-0.8-2-1.9-2c-1,0-1.9,0.8-2,1.8c-0.1,1,0.7,2,1.8,2C154.9,121.6,155.8,120.8,155.9,119.8z"/>
		<path class="st0" d="M157.8,128.5c0,2.1-1.8,3.9-3.8,3.9c-2.2,0-4-1.8-3.9-4c0-2.1,1.7-3.8,3.8-3.8
			C156.1,124.6,157.8,126.3,157.8,128.5z M153.8,130.4c1.1,0.1,2-0.7,2-1.8c0-1-0.9-1.9-1.9-2c-1,0-2,0.9-2,1.9
			C152,129.5,152.8,130.3,153.8,130.4z"/>
		<path class="st0" d="M130.5,137.3c0-2.2,1.7-3.8,4-3.8c2.1,0,3.8,1.8,3.8,4c0,2-1.8,3.8-3.9,3.8
			C132.2,141.2,130.5,139.5,130.5,137.3z M134.4,135.4c-1,0-2,0.9-2,1.9c0,1,0.9,1.8,1.9,1.9c1.1,0,2-0.7,2-1.8
			C136.3,136.3,135.5,135.4,134.4,135.4z"/>
		<path class="st0" d="M154,133.5c2.3,0,3.9,1.7,3.9,4c0,2.1-1.9,3.8-4,3.8c-2.1,0-3.8-1.8-3.8-4C150.1,135.1,151.8,133.5,154,133.5
			z M155.9,137.4c0-1-0.9-2-1.9-2c-1,0-2,0.9-1.9,2c0,1,0.9,1.8,1.9,1.9C155,139.2,155.9,138.4,155.9,137.4z"/>
	</g>
</g>
</svg>
