<?xml version="1.0" encoding="utf-8"?>
<!-- Generator: Adobe Illustrator 24.0.2, SVG Export Plug-In . SVG Version: 6.00 Build 0)  -->
<svg version="1.1" id="Capa_1" xmlns="http://www.w3.org/2000/svg" xmlns:xlink="http://www.w3.org/1999/xlink" x="0px" y="0px"
	 viewBox="0 0 300 300" style="enable-background:new 0 0 300 300;" xml:space="preserve">
<style type="text/css">
	.st0{fill:#FFFFFF;}
</style>
<g id="PZD60j_1_">
	<g>
		<path class="st0" d="M161.1,133.2c0.6,0,1.1,0,1.6,0c6.8,0,13.6,0,20.4,0c3.3,0,6.7,0,10,0c3.5,0,6.3,2.4,6.8,5.8
			c0.1,0.4,0.1,0.8,0.1,1.2c0,8.7,0,17.3,0,26c0,1.9-0.4,3.6-1.7,5c-1.2,1.4-2.8,2.1-4.6,2.2c-1,0-1.9,0-3,0c0,0.2,0,0.4,0,0.5
			c0,3.3,0,6.7,0,10c0,0.7-0.2,1.2-0.9,1.4c-0.5,0.2-1.1,0.1-1.6-0.4c-3.7-3.7-7.4-7.4-11.1-11.1c-0.3-0.3-0.7-0.5-1.2-0.5
			c-5.4,0-10.8,0-16.3,0c-3.7,0-6.7-3-6.7-6.7c0-4.2,0-8.4,0-12.6c0-0.2,0-0.4,0-0.7c-0.7,0-1.4,0-2.1,0c-4.3,0-8.7,0-13,0
			c-0.3,0-0.5,0.1-0.8,0.3c-2.9,2.9-5.9,5.9-8.8,8.8c-0.8,0.8-1.6,1.6-2.4,2.4c-0.4,0.4-1,0.6-1.6,0.4c-0.6-0.3-0.9-0.7-0.9-1.4
			c0-3.3,0-6.6,0-9.9c0-0.2,0-0.4,0-0.6c-0.8,0-1.5,0-2.3,0c-1,0-2-0.1-2.9-0.6c-2.6-1.2-4.1-3.3-4.1-6.2c0-8.9,0-17.8,0-26.7
			c0-3.6,2.6-6.4,6.1-6.8c0.2,0,0.4,0,0.6,0c6.8,0,13.5,0,20.3,0c4.5,0,8.9,0,13.4,0c3.6,0,6.6,3,6.6,6.6c0,4.3,0,8.6,0,12.9
			C161.1,132.8,161.1,133,161.1,133.2z M187.8,180.8c0.1,0,0.1-0.1,0.2-0.1c0-0.2,0-0.3,0-0.5c0-2.6,0-5.2,0-7.9
			c0-1.1,0.5-1.6,1.6-1.6c1.2,0,2.3,0,3.5,0c2.6,0,4.2-1.7,4.2-4.2c0-8.8,0-17.5,0-26.3c0-0.3,0-0.7-0.1-1c-0.3-1.7-1.8-3.3-4-3.2
			c-4.1,0-8.2,0-12.4,0c-5.2,0-10.5,0-15.7,0c-1.9,0-3.7,0-5.6,0c-2,0.1-3.7,1.8-3.7,3.9c0,9,0,18,0,26.9c0,0.4,0.1,0.8,0.2,1.2
			c0.6,1.8,2,2.7,4,2.7c5.7,0,11.4,0,17.1,0c0.6,0,1,0.2,1.4,0.6c2.5,2.5,5,5,7.4,7.5C186.5,179.4,187.1,180.1,187.8,180.8z
			 M153,150.6c0-0.2,0-0.4,0-0.6c0-3.4,0-6.8,0-10.2c0-3,2-5.6,4.9-6.4c0.4-0.1,0.5-0.2,0.5-0.6c0-4.3-0.1-8.5,0-12.8
			c0-2.3-1.8-4.2-4.2-4.2c-5,0.1-10.1,0-15.1,0c-6,0-12,0-18,0c-2.2,0-4.1,1.7-4.1,4.1c0,8.9,0,17.8,0,26.7c0,2.3,1.8,4,4.1,4
			c1.2,0,2.4,0,3.6,0c1.1,0,1.6,0.5,1.6,1.6c0,2.4,0,4.8,0,7.2c0,0.4,0,0.8,0,1.3c0.2-0.2,0.2-0.2,0.3-0.3c3-3,6.1-6.1,9.1-9.1
			c0.5-0.5,1-0.7,1.7-0.7c5,0,10.1,0,15.1,0C152.6,150.6,152.8,150.6,153,150.6z"/>
		<path class="st0" d="M176.5,141.2c0.5,0,0.9,0,1.4,0c0.5,0,0.8,0.2,1,0.6c0.9,2.3,1.8,4.5,2.7,6.8c2.2,5.4,4.3,10.7,6.5,16.1
			c0.2,0.5,0.1,0.7-0.5,0.7c-0.9,0-1.9,0-2.8,0c-0.4,0-0.5-0.1-0.7-0.5c-0.6-1.5-1.2-2.9-1.7-4.4c-0.1-0.3-0.3-0.4-0.6-0.4
			c-3.4,0-6.9,0-10.3,0c-0.4,0-0.5,0.1-0.7,0.4c-0.6,1.4-1.1,2.9-1.7,4.3c-0.1,0.4-0.3,0.6-0.8,0.5c-0.9,0-1.9,0-2.8,0
			c-0.6,0-0.7-0.2-0.5-0.7c1.2-3,2.4-6.1,3.7-9.1c1.7-4.3,3.5-8.7,5.3-13c0.1-0.4,0.3-0.7,0.4-1.1c0.1-0.3,0.3-0.4,0.6-0.4
			C175.4,141.2,175.9,141.2,176.5,141.2z M176.5,145.5c-1.5,3.9-3,7.7-4.5,11.5c3,0,6,0,9,0C179.5,153.1,178,149.4,176.5,145.5z"/>
		<path class="st0" d="M135.8,123.9c0-1.2,0-2.2,0-3.3c0-0.7,0.1-0.7,0.8-0.7c0.7,0,1.5,0,2.2,0c0.4,0,0.5,0.1,0.5,0.5c0,1,0,2,0,3
			c0,0.2,0,0.3,0,0.5c0.2,0,0.4,0,0.6,0c3.1,0,6.2,0,9.4,0c0.8,0,0.8,0,0.8,0.8c0,0.6,0,1.1,0,1.7c0,0.6-0.1,0.7-0.7,0.7
			c-1.1,0-2.2,0-3.2,0c-0.3,0-0.5,0.1-0.5,0.4c-0.8,2.7-1.8,5.4-3.4,7.8c-0.6,0.9-1.2,1.8-1.9,2.8c0.7,0.5,1.4,1,2.1,1.5
			c2.3,1.5,4.8,2.6,7.5,3.4c0.6,0.2,0.6,0.3,0.4,0.8c-0.4,0.8-0.8,1.5-1.2,2.3c-0.2,0.3-0.4,0.4-0.7,0.3c-2.3-0.8-4.4-1.8-6.5-3
			c-1.4-0.9-2.8-1.8-4.2-2.8c-0.7,0.5-1.4,1.1-2.2,1.6c-2.6,1.8-5.3,3.2-8.3,4.4c-0.4,0.1-0.6,0.1-0.8-0.3c-0.4-0.7-0.8-1.4-1.3-2.1
			c-0.2-0.4-0.2-0.6,0.3-0.8c2-0.7,4-1.5,5.8-2.6c1.4-0.8,2.7-1.8,4-2.7c-0.5-0.7-1-1.3-1.4-1.9c-1.8-2.6-3.1-5.4-4-8.4
			c-0.1-0.4-0.3-0.6-0.7-0.6c-1.1,0-2.1,0-3.2,0c-0.6,0-0.7-0.1-0.7-0.7c0-0.6,0-1.2,0-1.8c0-0.6,0.1-0.7,0.7-0.7c3.1,0,6.2,0,9.3,0
			C135.4,123.9,135.6,123.9,135.8,123.9z M133.3,127.2c0.9,3.1,2.4,5.8,4.4,8.3c2-2.5,3.3-5.3,4.2-8.3
			C139,127.2,136.2,127.2,133.3,127.2z"/>
	</g>
</g>
</svg>
