<?xml version="1.0" encoding="utf-8"?>
<!-- Generator: Adobe Illustrator 24.0.2, SVG Export Plug-In . SVG Version: 6.00 Build 0)  -->
<svg version="1.1" id="Capa_1" xmlns="http://www.w3.org/2000/svg" xmlns:xlink="http://www.w3.org/1999/xlink" x="0px" y="0px"
	 viewBox="0 0 300 300" style="enable-background:new 0 0 300 300;" xml:space="preserve">
<style type="text/css">
	.st0{fill:#FFFFFF;}
</style>
<g id="qURxHo_1_">
	<g>
		<path class="st0" d="M107.4,127.4c0.5,0,1.1-0.1,1.6-0.1c25.9,0,51.8,0,77.8,0c0.5,0,1.1,0.1,1.6,0.1c0,17.2,0,34.3,0,51.5
			c-0.6,0-1.2,0.1-1.8,0.1c-25.8,0-51.6,0-77.4,0c-0.6,0-1.2-0.1-1.8-0.1C107.4,161.7,107.4,144.5,107.4,127.4z M185,130.5
			c-24.9,0-49.6,0-74.3,0c0,15.1,0,30.1,0,45.2c24.8,0,49.5,0,74.3,0C185,160.6,185,145.7,185,130.5z"/>
		<path class="st0" d="M147.7,185.5c-6.9,0-13.8,0-20.7,0c-0.5,0-1.2,0.2-1.6-0.1c-0.7-0.4-1.2-1-1.8-1.6c0.6-0.5,1.1-1.1,1.7-1.5
			c0.3-0.2,0.8-0.1,1.2-0.1c14.2,0,28.4,0,42.6,0c0.5,0,1.1-0.1,1.4,0.1c0.6,0.4,1.4,0.9,1.4,1.4c0,0.5-0.8,1.2-1.3,1.5
			c-0.5,0.3-1.2,0.1-1.8,0.1C161.8,185.5,154.7,185.5,147.7,185.5z"/>
	</g>
</g>
</svg>
